<?xml version="1.0" encoding="utf-8"?>
<!-- Generator: Adobe Illustrator 25.0.1, SVG Export Plug-In . SVG Version: 6.00 Build 0)  -->
<svg version="1.1" id="Layer_1" xmlns="http://www.w3.org/2000/svg" xmlns:xlink="http://www.w3.org/1999/xlink" x="0px" y="0px"
	 viewBox="0 0 40 40" style="enable-background:new 0 0 40 40;" xml:space="preserve">
<style type="text/css">
	.st0{fill:none;}
	.st1{fill:#CD64F9;}
</style>
<rect y="0" class="st0" width="40" height="40"/>
<g>
	<path class="st1" d="M17.7,25.8l-0.2,0.1c-1.3,0.4-2.6,0.8-3.8,1.4c-0.1,0-0.1,0.1-0.1,0.1c0,0.1-0.1,0.1-0.1,0.2
		c-0.1,0.3-0.4,0.8-0.4,1L13,28.6v0.1l0,0h0l0.2-0.1c0.4-0.2,0.8-0.4,1.3-0.6h0c0.9-0.4,2-0.9,2.6-1.1c0.1,0,0.1-0.1,0.2-0.2
		l0.5-0.9L17.7,25.8C17.8,25.8,17.7,25.7,17.7,25.8z"/>
	<path class="st1" d="M22,30.8h-1.9c-2.4,0-4.5-0.1-7.7,0c-0.1,0-0.2,0-0.3,0.1c-0.1,0-0.2,0.1-0.3,0.1c-0.1,0-0.2,0.1-0.4,0.1
		l-0.9,0.6l0,0l0.1,0l0.1,0h0.4c0.9,0,2-0.1,3.2-0.1l0.1,0c2.3,0,4.3-0.1,5.8-0.2l1.5-0.1l1.7-0.1l3.7-0.4
		C27.1,30.7,22.1,30.8,22,30.8z"/>
	<path class="st1" d="M14,24.4c0.1-0.1,0.4-0.7,0.4-0.8v0c2.1-3.6,4.5-6.9,7.3-9.9l0.1-0.1c0,0,0-0.1,0-0.1s-0.1-0.1-0.1,0h-0.1
		c-1.9,0.2-3.8,0.6-5.6,1c-0.1,0-0.2,0.1-0.3,0.2c-1.4,1.5-2.7,3.2-3.9,4.8c0,0.1,0,0.2,0,0.3c0.2,1.3,0.4,2.5,0.7,3.8
		c-1.1,2.9-2.1,6.8-2.1,6.8v0.1c0,0,0,0,0.1,0h0.6c0,0,0.1,0,0.1-0.1l0-0.1c0.6-1.6,1.4-3.2,2.2-4.7C13.6,25.2,14,24.4,14,24.4z"/>
	<path class="st1" d="M22.7,14.4v-0.1c0,0,0-0.1-0.1-0.1c0,0-0.1,0-0.1,0l-0.1,0.1c-3.3,3.5-6.1,7.4-8.4,11.6L14.1,26v0.1
		c0,0,0,0,0.1,0h0l0.1,0c1.9-0.7,3.8-1.3,5.7-1.8c0.1,0,0.2-0.1,0.3-0.2c0.8-1.5,2.8-4.3,2.8-4.3c0-0.1,0.1-0.1,0-0.2
		C23.1,19.6,22.7,16.2,22.7,14.4z"/>
	<path class="st1" d="M27,9.5c-0.7-0.4-1.5-0.6-2.2-0.6c-1.1,0-2.3,0.2-3.4,0.6c-0.2,0.1-0.4,0.2-0.5,0.3c-1.3,1.1-2.6,2.4-3.8,3.6
		L17,13.4c0,0,0,0.1,0,0.1c0,0,0,0,0,0c0,0,0.1,0.1,0.1,0l0.1,0c1.9-0.4,3.9-0.7,5.9-0.9c0.1,0,0.3,0,0.4,0.1
		c0.1,0.1,0.1,0.2,0.1,0.3c0,1.8,0,3.5,0.2,5.3v0.1c0,0,0,0.1,0.1,0.1h0c0,0,0.1,0,0.1,0l0.1-0.1c1.1-1.4,2.3-2.8,3.5-4.1
		c0.1-0.1,0.2-0.2,0.2-0.4C28.2,11.6,27.6,9.9,27,9.5z"/>
</g>
</svg>
