<?xml version="1.0" encoding="utf-8"?>
<!-- Generator: Adobe Illustrator 25.0.1, SVG Export Plug-In . SVG Version: 6.00 Build 0)  -->
<svg version="1.1" id="Layer_1" xmlns="http://www.w3.org/2000/svg" xmlns:xlink="http://www.w3.org/1999/xlink" x="0px" y="0px"
	 viewBox="0 0 150 31" style="enable-background:new 0 0 150 31;" xml:space="preserve">
<style type="text/css">
	.st0{fill:none;}
	.st1{fill:#49B8AE;}
	.st2{fill:#00A7C4;}
</style>
<path class="st0" d="M141.3,1.7c0.6,0.1,1.2,0.2,1.8,0.3c1.9,0.4,3.7,1.4,4.9,2.9c0.4,0.4,0.6,1,0.8,1.5c0.2,1-0.3,1.9-1.2,2.4
	c-0.9,0.5-2,0.4-2.8-0.2c-0.4-0.3-0.7-0.6-1.1-0.9c-1.7-1.1-3.8-1.3-5.6-0.3c-0.8,0.3-1.4,1.1-1.5,1.9c-0.2,0.7,0.2,1.5,0.8,1.9
	c0.7,0.4,1.4,0.7,2.2,0.9c1.9,0.4,3.7,0.9,5.5,1.6c1.8,0.7,3.3,2,4.1,3.7c1.2,2.8,0.6,6.1-1.6,8.4c-1.7,1.8-4,2.8-6.5,2.9
	c-3,0.3-6.1-0.8-8.3-2.9c-0.8-0.7-1.4-1.6-1.8-2.5c-0.6-1.3,0-2.7,1.2-3.3c0.5-0.2,1-0.3,1.5-0.2c0.8,0.2,1.5,0.7,1.9,1.5
	c1.6,2.3,4.7,3.1,7.2,1.9c0.6-0.3,1-0.7,1.4-1.2c0.8-1,0.6-2.4-0.3-3.1c-0.1-0.1-0.2-0.2-0.3-0.2c-1.1-0.6-2.3-1-3.6-1.2
	c-1.6-0.3-3.2-0.9-4.7-1.7c-3.5-1.8-4.8-6.1-3-9.6c0.5-1,1.3-1.9,2.3-2.6c1.4-1,3.1-1.7,4.8-1.8c0.1,0,0.2-0.1,0.3-0.1H141.3z
	 M38,15.1c0-3.5,0-7.1,0-10.6c-0.1-1.3,0.9-2.5,2.2-2.6c0.1,0,0.3,0,0.4,0c1.6,0,3.3,0,4.9,0c6.1,0.2,11.3,4.6,12.6,10.6
	c1.5,7.1-3.1,14.1-10.2,15.6c-0.2,0-0.5,0.1-0.7,0.1c-1.3,0.2-2.5,0.2-3.8,0.2c-1.1,0-2.1,0-3.2,0C39,28.4,38,27.3,38,26
	c0,0,0,0,0,0C38,22.3,38,18.7,38,15.1z M43.1,23.5c1.2-0.1,2.3,0,3.4-0.2c4.4-0.6,7.4-4.7,6.8-9.1c0-0.3-0.1-0.6-0.2-0.9
	C52,8.8,48,6.5,43.1,7.1V23.5z M96.7,23.4h5.7c0.8,0,1.6,0,2.4,0c1.4,0,2.5,1.1,2.5,2.5c0,0,0,0.1,0,0.1c0,1.3-1,2.5-2.4,2.5
	c0,0-0.1,0-0.1,0c-3.6,0-7.1,0-10.7,0c-1.4,0.1-2.5-1-2.6-2.3c0-0.1,0-0.2,0-0.2c0-7.1,0-14.3,0-21.4c-0.1-1.4,1-2.5,2.4-2.6
	c0.1,0,0.1,0,0.2,0c3.5,0,7,0,10.5,0c1.4,0,2.5,1,2.6,2.4c0,0,0,0.1,0,0.1c0,1.4-1,2.5-2.4,2.5c-0.1,0-0.1,0-0.2,0c-2.5,0-5,0-7.6,0
	h-0.5v5.8h0.4c1.8,0,3.5,0,5.3,0c1.3,0,2.5,1,2.5,2.4c0,0,0,0.1,0,0.1c0,1.3-1,2.4-2.4,2.5c0,0-0.1,0-0.1,0c-1.8,0-3.5,0-5.3,0h-0.5
	L96.7,23.4z M81.6,6.6h-2.4c-0.6,0-1.3,0-1.9,0c-0.6,0-0.9-0.3-0.9-0.8c0-1,0-1.9,0-2.9c0-0.6,0.3-0.8,0.8-0.8h8.7
	c0.6,0,0.8,0.2,0.8,0.9c0,3.2,0,6.5,0,9.7c0,2.5,0,5,0,7.5c0.1,2.2-0.7,4.4-2.2,6c-1.5,1.6-3.6,2.6-5.8,2.7
	c-3.2,0.1-6.2-1.4-7.9-4.1c-0.3-0.3-0.3-0.8,0-1.1c0.1-0.1,0.2-0.1,0.3-0.2c0.8-0.4,1.7-0.9,2.5-1.3c0.4-0.3,1-0.2,1.3,0.2
	c0,0,0.1,0.1,0.1,0.1c1,1.2,2.6,1.7,4.1,1.3c1.5-0.4,2.5-1.8,2.4-3.4c0-4.5,0-9.1,0-13.6C81.6,6.7,81.6,6.7,81.6,6.6z M121.9,7v0.5
	c0,6.1,0,12.2,0,18.4c0.1,1.4-1,2.5-2.4,2.6c-0.2,0-0.4,0-0.5,0c-1.3-0.2-2.2-1.3-2.1-2.5c0-1.6,0-3.1,0-4.7V6.9h-0.5
	c-1.4,0-2.8,0-4.2,0c-1.3,0.1-2.5-1-2.5-2.3c0-0.1,0-0.1,0-0.2c0-1.3,1-2.5,2.3-2.5c0.1,0,0.1,0,0.2,0c4.8,0,9.6,0,14.5,0
	c1.4,0,2.5,1,2.5,2.4c0,0,0,0.1,0,0.1c0,1.4-1.1,2.5-2.4,2.5c0,0-0.1,0-0.1,0c-1.5,0-3.1,0-4.6,0C122,6.9,121.9,7,121.9,7z
	 M68.2,15.2c0,3.6,0,7.1,0,10.7c0,1-0.6,2-1.6,2.4c-1,0.4-2.1,0.1-2.8-0.6c-0.4-0.4-0.6-1-0.6-1.6c0-7.2,0-14.5,0-21.7
	c0-1.3,1.1-2.4,2.4-2.4c0,0,0.1,0,0.1,0c1.4,0,2.5,1,2.6,2.4c0,0,0,0.1,0,0.1C68.2,8,68.2,11.6,68.2,15.2z"/>
<path class="st1" d="M0,5c0.1,0.1,0.2,0.1,0.2,0.2c0.1,0.6,0.5,1.1,1,1.4C5.5,9.7,10,12.9,14.4,16c1.1,0.8,1.9,0.7,3,0
	c2.4-1.7,4.8-3.4,7.2-5.1C26,9.8,27,8.6,27.5,7c0.2-0.6,0.3-1.2,0.3-1.5c0,1.4,0.1,3,0,4.6c-0.2,2-1.1,3.6-2.7,4.8
	c-2.6,1.9-5.3,3.8-8,5.7c-0.9,0.6-1.8,0.4-2.6-0.1c-0.9-0.6-1.7-1.2-2.6-1.8c-3.5-2.5-7.1-5-10.6-7.5c-0.6-0.4-1.1-0.9-1.2-1.7
	c0-1.3,0-2.5,0-3.8C0.1,5.5,0,5.4,0,5.3C0,5.2,0,5.1,0,5z"/>
<path class="st1" d="M0,15.1c0.1,0,0.2,0.1,0.2,0.1c0.1,0.7,0.6,1.1,1.1,1.5c2,1.5,4,3,6.1,4.4c2.3,1.6,4.6,3.2,6.9,4.7
	c1.3,0.9,2,0.9,3.3,0c2.3-1.6,4.6-3.3,7-4.9c1.4-1,2.4-2.2,3-3.8c0.2-0.6,0.3-1.2,0.5-1.9c-0.1,1.7,0,3.5-0.2,5.2
	c-0.2,1.8-1.2,3.3-2.7,4.4c-2.6,1.9-5.3,3.8-7.9,5.6c-0.9,0.7-1.9,0.5-2.8-0.1c-1.2-0.8-2.3-1.5-3.4-2.4c-3.3-2.3-6.5-4.7-9.8-7
	c-0.6-0.4-1-0.9-1.1-1.7c0-1.3,0-2.5,0-3.8c0-0.1-0.1-0.2-0.1-0.2C0,15.3,0,15.2,0,15.1z"/>
<path class="st2" d="M6.5,4.7c0.1-0.1,0.1-0.2,0.2-0.2c1.4-1,2.8-2,4.2-2.9c1.5-1,3.1-1.5,4.9-1.5c1.7,0,3.2,0.5,4.6,1.5
	c0.7,0.4,1.3,0.9,1.9,1.5c1,0.9,1.1,2.4,0.3,3.5c-0.2,0.2-0.3,0.2-0.6,0.1c-0.3-0.2-0.6-0.4-0.9-0.6c-3.2-2-6.4-2-9.6,0
	c-0.5,0.3-1,0.6-1.5,0.9c-0.1,0.1-0.3,0.1-0.4,0c-1-0.7-2-1.3-3-2C6.6,4.8,6.6,4.7,6.5,4.7z"/>
</svg>
