<svg width="54" height="33" viewBox="0 0 54 33" fill="none" xmlns="http://www.w3.org/2000/svg">
<path d="M10.9028 6.01462C10.9613 6.07446 11.0637 6.12929 11.0712 6.19494C11.144 6.83422 11.5421 7.26343 12.0259 7.60683C16.4683 10.7603 20.9116 13.9124 25.3701 17.043C26.447 17.7991 27.3009 17.7554 28.3637 17.0056C30.7919 15.2923 33.2181 13.5761 35.641 11.8554C37.0148 10.8797 38.0168 9.61136 38.5408 8.00515C38.7236 7.44464 38.794 6.8476 38.8708 6.4814C38.8708 7.88071 38.9743 9.50302 38.8445 11.1065C38.6844 13.0833 37.6919 14.7134 36.1067 15.8873C33.4661 17.8425 30.7735 19.7285 28.0795 21.6105C27.2035 22.2225 26.2755 22.0623 25.4173 21.503C24.5372 20.9294 23.6641 20.3437 22.8082 19.7349C19.2615 17.2122 15.7236 14.6772 12.1796 12.1506C11.5725 11.7177 11.0929 11.206 10.9849 10.4323C10.9875 9.17511 10.992 7.91785 10.9887 6.66067C10.9885 6.56519 10.9328 6.46988 10.9028 6.37457C10.9028 6.25461 10.9028 6.13466 10.9028 6.01462Z" fill="#03D2BC"/>
<path d="M10.9027 16.1815C10.9586 16.2191 11.059 16.2518 11.0636 16.2949C11.1412 17.0077 11.6187 17.4381 12.1478 17.8243C14.184 19.3108 16.2095 20.8123 18.2679 22.2675C20.547 23.8785 22.8555 25.4478 25.1553 27.0295C26.4731 27.9358 27.2041 27.9395 28.5199 27.0163C30.8538 25.3786 33.1733 23.7202 35.5057 22.0802C36.8958 21.1028 37.9494 19.862 38.4958 18.2447C38.6987 17.6443 38.781 17.0033 39 16.3796C38.9398 18.1204 38.9917 19.8742 38.789 21.5983C38.5719 23.4455 37.5573 24.954 36.0677 26.052C33.4473 27.9835 30.7783 29.8499 28.1129 31.72C27.1787 32.3754 26.2263 32.1808 25.3354 31.5857C24.1751 30.8103 23.0173 30.0301 21.8809 29.2207C18.6053 26.8877 15.341 24.5388 12.0721 22.1964C11.4878 21.7778 11.0701 21.2523 10.9796 20.5148C10.9836 19.241 10.9893 17.9673 10.9878 16.6935C10.9877 16.6129 10.9322 16.5323 10.9026 16.4517C10.9027 16.3615 10.9027 16.2715 10.9027 16.1815Z" fill="#03D2BC"/>
<path d="M17.4583 5.67641C17.5342 5.5899 17.5734 5.52302 17.6312 5.48254C19.0447 4.49308 20.4332 3.46472 21.8829 2.53088C23.383 1.56457 25.0397 0.997194 26.852 1.00001C28.5412 1.00265 30.0735 1.5394 31.4627 2.46673C32.1343 2.91503 32.7844 3.40981 33.3803 3.95333C34.3435 4.8319 34.4433 6.39657 33.6768 7.44843C33.5055 7.68349 33.3273 7.69872 33.1025 7.54858C32.7904 7.34027 32.4807 7.128 32.1632 6.92831C28.9568 4.91164 25.75 4.93338 22.5441 6.93095C22.0346 7.24839 21.5301 7.57445 21.0111 7.87543C20.9069 7.93589 20.7077 7.95974 20.6187 7.90078C19.6183 7.2373 18.6303 6.55498 17.6411 5.87469C17.5818 5.83403 17.5406 5.76724 17.4583 5.67641Z" fill="#03A8C4"/>
</svg>
