<?xml version="1.0" encoding="utf-8"?>
<!-- Generator: Adobe Illustrator 25.0.1, SVG Export Plug-In . SVG Version: 6.00 Build 0)  -->
<svg version="1.1" id="Layer_1" xmlns="http://www.w3.org/2000/svg" xmlns:xlink="http://www.w3.org/1999/xlink" x="0px" y="0px"
	 viewBox="0 0 40 40" style="enable-background:new 0 0 40 40;" xml:space="preserve">
<style type="text/css">
	.st0{fill:none;}
	.st1{fill:#17CEFF;}
</style>
<rect y="0" class="st0" width="40" height="40"/>
<path class="st1" d="M10.1,21v-7.6c0.1-1.6,1.4-2.7,3-2.7l0,0c1.5-0.1,2.7,1,2.8,2.5v7.5c0,0.2,0.1,0.3,0.3,0.3h7.2v-3.9
	c0-0.2,0.1-0.3,0.3-0.3l0,0c0.1,0,0.2,0,0.2,0.1l6.2,6.7c0.1,0.1,0.1,0.2,0,0.3l-6.2,6.7c-0.1,0.1-0.3,0.1-0.4,0
	c-0.1,0-0.1-0.1-0.1-0.2v-3.9H10.7c-0.3,0-0.6-0.2-0.6-0.5V21z"/>
</svg>
