<?xml version="1.0" encoding="utf-8"?>
<!-- Generator: Adobe Illustrator 25.0.1, SVG Export Plug-In . SVG Version: 6.00 Build 0)  -->
<svg version="1.1" id="Layer_1" xmlns="http://www.w3.org/2000/svg" xmlns:xlink="http://www.w3.org/1999/xlink" x="0px" y="0px"
	 viewBox="0 0 40 40" style="enable-background:new 0 0 40 40;" xml:space="preserve">
<style type="text/css">
	.st0{fill:none;}
	.st1{fill-rule:evenodd;clip-rule:evenodd;fill:#FF4E8D;}
	.st2{fill:none;stroke:#FF4E8D;stroke-width:1.5;}
</style>
<rect y="0" class="st0" width="40" height="40"/>
<g>
	<path class="st1" d="M30.3,13.9c0.1,0.9,0.3,1.8,0.3,2.7c0,0.2,0,0.5-0.1,0.8c-0.1,0.1-0.1,0.2-0.2,0.2c-0.1,0.1-0.2,0.2-0.3,0.2
		c-0.3,0.1-0.5-0.1-0.6-0.2l-1.3-0.8l-7.5,11c-0.2,0.3-0.4,0.4-0.8,0.5c-0.3,0.1-0.7,0-0.9-0.2l-4.4-3l-3.1,4.6
		c-0.2,0.3-0.4,0.4-0.8,0.5s-0.6,0-0.9-0.2l-0.3-0.2C9,29.4,8.9,28.6,9.2,28l4-5.8c0.2-0.3,0.4-0.4,0.8-0.5s0.7,0,0.9,0.2l4.4,3
		l6.7-9.7c-0.3-0.2-0.6-0.4-0.8-0.6l-0.3-0.3c-0.2-0.1-0.5-0.3-0.3-0.8c0-0.1,0.1-0.2,0.1-0.3c0.2-0.3,0.4-0.3,0.6-0.3
		c1.3-0.3,2.7-0.7,4-0.9h0.1c0.3-0.1,0.5,0,0.7,0.1s0.3,0.3,0.3,0.6L30.3,13.9z"/>
	<path class="st2" d="M30.4,13.9L30.4,13.9c0.1,0.9,0.3,1.8,0.3,2.7c0,0.3,0.1,0.5-0.2,0.8c-0.1,0.1-0.1,0.2-0.2,0.3l0,0l0,0
		c-0.1,0.1-0.3,0.2-0.4,0.2c-0.3,0.1-0.6-0.1-0.7-0.2l0,0l0,0L28.2,17l-7.4,10.9l0,0c-0.2,0.3-0.5,0.5-0.8,0.6c-0.3,0.1-0.7,0-1-0.3
		L30.4,13.9z M30.4,13.9l-0.2-1.3l0,0c0-0.3-0.2-0.6-0.3-0.7c-0.2-0.2-0.5-0.2-0.8-0.2l0,0l0,0l0,0l0,0l0,0l0,0l0,0l0,0l0,0l0,0l0,0
		l0,0l0,0l0,0l0,0l0,0l0,0l0,0l0,0l0,0l0,0l0,0l0,0l0,0l0,0l0,0l0,0l0,0l0,0l0,0l0,0l0,0l0,0l0,0l0,0l0,0l0,0l0,0l0,0l0,0l0,0l0,0
		l0,0l0,0l0,0l0,0l0,0l0,0l0,0l0,0l0,0l0,0l0,0l0,0l0,0l0,0l0,0l0,0l0,0l0,0l0,0l0,0l0,0l0,0l0,0l0,0l0,0l0,0l0,0l0,0l0,0l0,0l0,0
		l0,0l0,0l0,0l0,0l0,0l0,0l0,0l0,0l0,0l0,0l0,0l0,0l0,0l0,0l0,0l0,0l0,0l0,0l0,0l0,0l0,0l0,0l0,0l0,0l0,0l0,0l0,0l0,0l0,0l0,0l0,0
		l0,0l0,0l0,0l0,0l0,0l0,0l0,0l0,0l0,0l0,0l0,0l0,0l0,0l0,0l0,0l0,0l0,0l0,0l0,0l0,0l0,0l0,0l0,0l0,0l0,0l0,0l0,0l0,0l0,0l0,0l0,0
		l0,0l0,0l0,0l0,0l0,0l0,0l0,0l0,0l0,0l0,0l0,0l0,0l0,0l0,0l0,0l0,0l0,0l0,0l0,0l0,0l0,0l0,0l0,0l0,0l0,0l0,0l0,0l0,0l0,0l0,0l0,0
		l0,0l0,0l0,0l0,0l0,0l0,0l0,0l0,0l0,0l0,0l0,0l0,0l0,0l0,0l0,0l0,0l0,0l0,0l0,0l0,0l0,0l0,0l0,0l0,0l0,0l0,0l0,0l0,0l0,0l0,0l0,0
		l0,0l0,0l0,0l0,0l0,0l0,0l0,0l0,0l0,0l0,0l0,0l0,0l0,0l0,0l0,0l0,0l0,0l0,0l0,0l0,0l0,0l0,0l0,0l0,0l0,0l0,0l0,0l0,0l0,0l0,0l0,0
		l0,0l0,0l0,0l0,0l0,0l0,0l0,0l0,0l0,0l0,0l0,0l0,0l0,0l0,0l0,0l0,0l0,0l0,0l0,0l0,0l0,0l0,0l0,0l0,0l0,0l0,0l0,0l0,0l0,0l0,0l0,0
		l0,0l0,0l0,0l0,0l0,0l0,0l0,0l0,0l0,0l0,0l0,0l0,0l0,0l0,0l0,0l0,0l0,0l0,0l0,0l0,0l0,0l0,0l0,0l0,0l0,0l0,0l0,0l0,0l0,0l0,0l0,0
		l0,0l0,0l0,0l0,0l0,0l0,0l0,0l0,0l0,0l0,0l0,0l0,0l0,0l0,0l0,0l0,0l0,0l0,0l0,0l0,0l0,0l0,0l0,0l0,0l0,0l0,0l0,0l0,0l0,0l0,0l0,0
		l0,0l0,0l0,0l0,0l0,0l0,0l0,0l0,0l0,0l0,0l0,0l0,0l0,0l0,0l0,0l0,0l0,0l0,0l0,0l0,0l0,0l0,0l0,0l0,0l0,0l0,0l0,0l0,0l0,0l0,0l0,0
		l0,0l0,0l0,0l0,0l0,0l0,0l0,0l0,0l0,0l0,0l0,0l0,0l0,0l0,0l0,0l0,0l0,0l0,0l0,0l0,0l0,0l0,0l0,0l0,0l0,0l0,0l0,0l0,0l0,0l0,0l0,0
		l0,0l0,0l0,0l0,0l0,0l0,0l0,0l0,0l0,0l0,0l0,0l0,0l0,0l0,0l0,0l0,0l0,0l0,0l0,0l0,0l0,0l0,0l0,0l0,0l0,0l0,0l0,0l0,0l0,0l0,0l0,0
		l0,0l0,0l0,0l0,0l0,0l0,0l0,0l0,0l0,0l0,0l0,0l0,0l0,0l0,0l0,0l0,0l0,0l0,0l0,0l0,0l0,0l0,0l0,0l0,0l0,0l0,0l0,0l0,0l0,0l0,0l0,0
		l0,0l0,0l0,0l0,0l0,0l0,0l0,0l0,0l0,0l0,0l0,0l0,0l0,0l0,0l0,0l0,0l0,0l0,0l0,0l0,0l0,0l0,0l0,0l0,0l0,0l0,0l0,0l0,0l0,0l0,0l0,0
		l0,0l0,0l0,0l0,0l0,0l0,0l0,0l0,0l0,0l0,0l0,0l0,0l0,0l0,0l0,0l0,0l0,0l0,0l0,0l0,0l0,0l0,0l0,0l0,0l0,0l0,0l0,0l0,0l0,0l0,0l0,0
		l0,0l0,0l0,0l0,0l0,0l0,0l0,0c-0.7,0.2-1.3,0.3-2,0.5l0,0l0,0c-0.7,0.2-1.3,0.3-2,0.5l0,0l0,0c-0.2,0.1-0.4,0.1-0.7,0.4
		c-0.1,0.1-0.1,0.2-0.2,0.3c-0.1,0.3,0,0.5,0.1,0.7c0.1,0.2,0.3,0.3,0.3,0.3l0,0l0,0l0.4,0.3l0,0c0.3,0.2,0.5,0.3,0.8,0.5l-6.5,9.4
		l-4.2-3c-0.3-0.2-0.7-0.3-1-0.3c-0.3,0.1-0.7,0.3-0.8,0.6l0,0l-4,5.8c-0.4,0.6-0.3,1.4,0.3,1.9L9.9,30l0,0c0.3,0.2,0.7,0.3,1,0.3
		c0.3-0.1,0.7-0.3,0.8-0.6l0,0l3-4.5l4.2,3L30.4,13.9z"/>
</g>
</svg>
