<?xml version="1.0" encoding="utf-8"?>
<!-- Generator: Adobe Illustrator 25.0.1, SVG Export Plug-In . SVG Version: 6.00 Build 0)  -->
<svg version="1.1" id="Layer_1" xmlns="http://www.w3.org/2000/svg" xmlns:xlink="http://www.w3.org/1999/xlink" x="0px" y="0px"
	 viewBox="0 0 40 40" style="enable-background:new 0 0 40 40;" xml:space="preserve">
<style type="text/css">
	.st0{fill:none;}
	.st1{fill:#29CACE;}
</style>
<rect y="0" class="st0" width="40" height="40"/>
<g>
	<path class="st1" d="M14.4,10.6L10.3,13c-0.1,0-0.1,0.1-0.1,0.2c0,0,0.1,0.1,0.1,0.1l9.5,5.6c0.1,0,0.2,0,0.3,0l4.1-2.4
		c0.1,0,0.1-0.1,0.1-0.2c0,0-0.1-0.1-0.1-0.1l-9.5-5.6C14.6,10.6,14.5,10.6,14.4,10.6z"/>
	<path class="st1" d="M25.2,10.6L21.2,13c-0.1,0-0.1,0.1-0.1,0.2c0,0,0.1,0.1,0.1,0.1l4.1,2.4c0.1,0,0.2,0,0.3,0l4.1-2.4
		c0.1,0,0.1-0.1,0.1-0.2c0,0-0.1-0.1-0.1-0.1l-4.1-2.4C25.5,10.6,25.3,10.6,25.2,10.6L25.2,10.6z"/>
	<path class="st1" d="M20.5,20.1v4.8c0,0.1,0.1,0.2,0.2,0.2c0,0,0.1,0,0.1,0l4.1-2.4c0,0,0.1-0.1,0.1-0.1v-4.9
		c0-0.1-0.1-0.2-0.2-0.2c0,0-0.1,0-0.1,0l-4,2.4C20.5,19.8,20.5,19.9,20.5,20.1L20.5,20.1z"/>
	<path class="st1" d="M26,16.6l4.1-2.4c0.1,0,0.3,0,0.3,0.1v11.1c0,0.1-0.1,0.2-0.2,0.3l-9.5,5.6c-0.1,0-0.3,0-0.3-0.1v-4.8
		c0-0.1,0.1-0.2,0.2-0.3l5.1-3c0.1-0.1,0.2-0.2,0.2-0.3v-5.9C25.9,16.8,25.9,16.7,26,16.6L26,16.6z"/>
	<path class="st1" d="M19.6,20v4.9c0,0.1-0.1,0.1-0.2,0.1l-5-2.9c-0.1,0-0.3,0-0.3,0.1V28c0,0.1-0.1,0.2-0.2,0.2c0,0-0.1,0-0.1,0
		l-4.1-2.4c-0.1-0.1-0.2-0.2-0.2-0.3V14.3c0-0.1,0.1-0.2,0.2-0.2c0,0,0.1,0,0.1,0l9.5,5.6C19.5,19.8,19.5,19.9,19.6,20z"/>
	<path class="st1" d="M15.4,23.7l4.1,2.4c0.1,0.1,0.2,0.2,0.2,0.3v4.8c0,0.1-0.1,0.2-0.2,0.2c0,0-0.1,0-0.1,0l-4.1-2.4
		c-0.1-0.1-0.2-0.2-0.2-0.3v-4.8C15.1,23.8,15.3,23.7,15.4,23.7z"/>
</g>
</svg>
