<?xml version="1.0" encoding="utf-8"?>
<!-- Generator: Adobe Illustrator 25.0.1, SVG Export Plug-In . SVG Version: 6.00 Build 0)  -->
<svg version="1.1" id="Layer_1" xmlns="http://www.w3.org/2000/svg" xmlns:xlink="http://www.w3.org/1999/xlink" x="0px" y="0px"
	 viewBox="0 0 40 40" style="enable-background:new 0 0 40 40;" xml:space="preserve">
<style type="text/css">
	.st0{fill:none;}
	.st1{fill:#FFB13D;}
</style>
<rect y="0" class="st0" width="40" height="40"/>
<g>
	<path class="st1" d="M24.5,15.2c-1.7,0-6.1-0.2-6.1-2v2.7c0,1.9,5.1,2,6.1,2c1,0,6.1-0.1,6.1-2v-2.7C30.7,15,26.3,15.2,24.5,15.2z"
		/>
	<path class="st1" d="M24.5,9.8c-1,0-6.1,0.1-6.1,2s5.1,2,6.1,2c1,0,6.1-0.1,6.1-2S25.5,9.8,24.5,9.8z"/>
	<path class="st1" d="M24.5,19.2c-1.7,0-6.1-0.2-6.1-2v1c1.1,0.8,1.8,2,2.3,3.3c1.5,0.3,3.2,0.3,3.8,0.3c1,0,6.1-0.1,6.1-2v-2.7
		C30.7,19,26.3,19.2,24.5,19.2z"/>
	<path class="st1" d="M24.5,23.3c-0.5,0-2.1,0-3.5-0.3c0.1,0.3,0.1,0.7,0.1,1c0,0.6-0.1,1.2-0.2,1.7c1.4,0.3,3.1,0.3,3.7,0.3
		c1,0,6.1-0.1,6.1-2v-2.7C30.7,23,26.3,23.3,24.5,23.3z"/>
	<path class="st1" d="M24.5,27.3c-0.6,0-2.5,0-4-0.4c-0.3,0.8-0.8,1.5-1.4,2.2c1.4,0.9,4.7,1,5.4,1c1,0,6.1-0.1,6.1-2v-2.7
		C30.7,27,26.3,27.3,24.5,27.3z"/>
	<path class="st1" d="M13.7,17.9c-3.3,0-6.1,2.7-6.1,6.1s2.7,6.1,6.1,6.1s6.1-2.7,6.1-6.1S17.1,17.9,13.7,17.9z M14.4,27.2
		L14.4,27.2V28c0,0.3-0.3,0.7-0.7,0.7c-0.3,0-0.7-0.3-0.7-0.7v-0.8c-0.4-0.2-0.8-0.4-1.2-0.8c-0.2-0.2-0.2-0.7,0.1-0.9
		c0.2-0.2,0.7-0.2,0.9,0.1c0.3,0.4,0.7,0.6,1.1,0.5c0.2-0.1,0.4-0.3,0.4-0.7c0-0.3-0.3-0.7-0.7-0.7c-1.1,0-2-0.9-2-2
		c0-0.8,0.4-1.6,1.3-1.9v-0.8c0-0.3,0.3-0.7,0.7-0.7s0.7,0.3,0.7,0.7v0.8c0.3,0.1,0.7,0.3,1,0.6c0.2,0.2,0.2,0.7,0,0.9
		s-0.7,0.2-0.9,0c-0.3-0.3-0.7-0.4-1-0.3C13.2,22,13,22.3,13,22.5c0,0.3,0.3,0.7,0.7,0.7c1.1,0,2,0.9,2,2
		C15.7,26.1,15.2,26.8,14.4,27.2z"/>
</g>
</svg>
